<svg width="28" height="29" viewBox="0 0 28 29" fill="none" xmlns="http://www.w3.org/2000/svg">
<g filter="url(#filter0_i_247_966)">
<rect y="0.358398" width="28" height="28" rx="14" fill="url(#paint0_linear_247_966)"/>
<rect x="0.5" y="0.858398" width="27" height="27" rx="13.5" stroke="url(#paint1_linear_247_966)"/>
</g>
<g clip-path="url(#clip0_247_966)">
<path d="M17.4949 4.84486L15.2926 13.1574C15.2502 13.3164 15.3689 13.4315 15.5317 13.3892L20.4881 12.0955C20.6754 12.0467 20.7949 12.2034 20.7059 12.3823L13.7541 26.4217C13.6244 26.6838 13.2548 26.6687 13.2904 26.4026L14.3721 18.3065C14.3915 18.1619 14.2763 18.0684 14.1262 18.1068L9.30209 19.3661C9.15374 19.4052 9.03846 19.3126 9.05626 19.1687L10.6287 6.54844C10.644 6.42699 10.7491 6.31192 10.8745 6.27916L17.2559 4.61313C17.4186 4.57078 17.5373 4.68505 17.4949 4.84486Z" fill="url(#paint2_linear_247_966)"/>
<path d="M17.4949 4.84486L15.2926 13.1574C15.2502 13.3164 15.3689 13.4315 15.5317 13.3892L20.4881 12.0955C20.6754 12.0467 20.7949 12.2034 20.7059 12.3823L13.7541 26.4217C13.6244 26.6838 13.2548 26.6687 13.2904 26.4026L14.3721 18.3065C14.3915 18.1619 14.2763 18.0684 14.1262 18.1068L9.30209 19.3661C9.15374 19.4052 9.03846 19.3126 9.05626 19.1687L10.6287 6.54844C10.644 6.42699 10.7491 6.31192 10.8745 6.27916L17.2559 4.61313C17.4186 4.57078 17.5373 4.68505 17.4949 4.84486Z" stroke="url(#paint3_linear_247_966)" stroke-miterlimit="10"/>
<path d="M17.2312 4.67829L15.029 12.9909C14.9866 13.1499 15.1053 13.2649 15.268 13.2226L20.2244 11.9289C20.4117 11.8802 20.5312 12.0368 20.4422 12.2158L13.4904 26.2552C13.3607 26.5173 12.9911 26.5021 13.0267 26.236L14.1084 18.14C14.1279 17.9953 14.0126 17.9019 13.8626 17.9402L9.03842 19.1995C8.89007 19.2387 8.77479 19.146 8.79259 19.0021L10.3642 6.38187C10.3794 6.26042 10.4846 6.14535 10.61 6.11259L16.9922 4.44736C17.1549 4.40501 17.2736 4.51928 17.2312 4.67909V4.67829Z" fill="url(#paint4_linear_247_966)"/>
<path d="M17.2312 4.67829L15.029 12.9909C14.9866 13.1499 15.1053 13.2649 15.268 13.2226L20.2244 11.9289C20.4117 11.8802 20.5312 12.0368 20.4422 12.2158L13.4904 26.2552C13.3607 26.5173 12.9911 26.5021 13.0267 26.236L14.1084 18.14C14.1279 17.9953 14.0126 17.9019 13.8626 17.9402L9.03842 19.1995C8.89007 19.2387 8.77479 19.146 8.79259 19.0021L10.3642 6.38187C10.3794 6.26042 10.4846 6.14535 10.61 6.11259L16.9922 4.44736C17.1549 4.40501 17.2736 4.51928 17.2312 4.67909V4.67829Z" stroke="url(#paint5_linear_247_966)" stroke-miterlimit="10"/>
<path d="M16.9668 4.51332L14.7645 12.8259C14.7221 12.9849 14.8408 13.1 15.0035 13.0576L19.9599 11.7639C20.1473 11.7152 20.2668 11.8718 20.1778 12.0508L13.226 26.0902C13.0963 26.3523 12.7267 26.3371 12.7623 26.071L13.8439 17.975C13.8634 17.8304 13.7481 17.7369 13.5981 17.7752L8.77395 19.0345C8.62561 19.0737 8.51032 18.981 8.52812 18.8372L10.1006 6.2169C10.1158 6.09545 10.2209 5.98038 10.3464 5.94762L16.7277 4.28159C16.8905 4.23924 17.0091 4.35351 16.9668 4.51332Z" fill="url(#paint6_linear_247_966)"/>
<path d="M16.9668 4.51332L14.7645 12.8259C14.7221 12.9849 14.8408 13.1 15.0035 13.0576L19.9599 11.7639C20.1473 11.7152 20.2668 11.8718 20.1778 12.0508L13.226 26.0902C13.0963 26.3523 12.7267 26.3371 12.7623 26.071L13.8439 17.975C13.8634 17.8304 13.7481 17.7369 13.5981 17.7752L8.77395 19.0345C8.62561 19.0737 8.51032 18.981 8.52812 18.8372L10.1006 6.2169C10.1158 6.09545 10.2209 5.98038 10.3464 5.94762L16.7277 4.28159C16.8905 4.23924 17.0091 4.35351 16.9668 4.51332Z" stroke="url(#paint7_linear_247_966)" stroke-miterlimit="10"/>
<path d="M16.7032 4.34706L14.5009 12.6596C14.4585 12.8186 14.5772 12.9337 14.7399 12.8914L19.6963 11.5977C19.8836 11.5489 20.0032 11.7056 19.9142 11.8845L12.9623 25.9239C12.8327 26.186 12.4631 26.1708 12.4987 25.9048L13.5803 17.8087C13.5998 17.6641 13.4845 17.5706 13.3345 17.609L8.51034 18.8683C8.362 18.9074 8.24671 18.8147 8.26451 18.6709L9.83696 6.05064C9.85221 5.92919 9.95733 5.81412 10.0828 5.78136L16.4641 4.11533C16.6269 4.07298 16.7455 4.18725 16.7032 4.34706Z" fill="url(#paint8_linear_247_966)"/>
<path d="M16.7032 4.34706L14.5009 12.6596C14.4585 12.8186 14.5772 12.9337 14.7399 12.8914L19.6963 11.5977C19.8836 11.5489 20.0032 11.7056 19.9142 11.8845L12.9623 25.9239C12.8327 26.186 12.4631 26.1708 12.4987 25.9048L13.5803 17.8087C13.5998 17.6641 13.4845 17.5706 13.3345 17.609L8.51034 18.8683C8.362 18.9074 8.24671 18.8147 8.26451 18.6709L9.83696 6.05064C9.85221 5.92919 9.95733 5.81412 10.0828 5.78136L16.4641 4.11533C16.6269 4.07298 16.7455 4.18725 16.7032 4.34706Z" stroke="url(#paint9_linear_247_966)" stroke-miterlimit="10"/>
</g>
<defs>
<filter id="filter0_i_247_966" x="0" y="0.358398" width="28" height="28" filterUnits="userSpaceOnUse" color-interpolation-filters="sRGB">
<feFlood flood-opacity="0" result="BackgroundImageFix"/>
<feBlend mode="normal" in="SourceGraphic" in2="BackgroundImageFix" result="shape"/>
<feColorMatrix in="SourceAlpha" type="matrix" values="0 0 0 0 0 0 0 0 0 0 0 0 0 0 0 0 0 0 127 0" result="hardAlpha"/>
<feMorphology radius="2" operator="erode" in="SourceAlpha" result="effect1_innerShadow_247_966"/>
<feOffset/>
<feGaussianBlur stdDeviation="1"/>
<feComposite in2="hardAlpha" operator="arithmetic" k2="-1" k3="1"/>
<feColorMatrix type="matrix" values="0 0 0 0 0.898039 0 0 0 0 0.0470588 0 0 0 0 0 0 0 0 0.4 0"/>
<feBlend mode="normal" in2="shape" result="effect1_innerShadow_247_966"/>
</filter>
<linearGradient id="paint0_linear_247_966" x1="14" y1="0.358398" x2="14" y2="28.3584" gradientUnits="userSpaceOnUse">
<stop stop-color="#E50C00" stop-opacity="0.12"/>
<stop offset="0.5" stop-color="#E50C00" stop-opacity="0.04"/>
<stop offset="1" stop-color="#E50C00" stop-opacity="0.07"/>
</linearGradient>
<linearGradient id="paint1_linear_247_966" x1="14" y1="0.358398" x2="14" y2="28.3584" gradientUnits="userSpaceOnUse">
<stop stop-color="#E50C00" stop-opacity="0.32"/>
<stop offset="0.5" stop-color="#E50C00" stop-opacity="0.1"/>
<stop offset="1" stop-color="#E50C00" stop-opacity="0.16"/>
</linearGradient>
<linearGradient id="paint2_linear_247_966" x1="9.05541" y1="15.6073" x2="20.7364" y2="15.6073" gradientUnits="userSpaceOnUse">
<stop stop-color="#7C0000"/>
<stop offset="0.75" stop-color="#E50C00"/>
</linearGradient>
<linearGradient id="paint3_linear_247_966" x1="8.79178" y1="15.6073" x2="21.0001" y2="15.6073" gradientUnits="userSpaceOnUse">
<stop stop-color="#7C0000"/>
<stop offset="0.2" stop-color="#F5F5F0"/>
<stop offset="0.75" stop-color="#E50C00"/>
</linearGradient>
<linearGradient id="paint4_linear_247_966" x1="8.79174" y1="15.4408" x2="20.4719" y2="15.4408" gradientUnits="userSpaceOnUse">
<stop stop-color="#7C0000"/>
<stop offset="0.75" stop-color="#E50C00"/>
</linearGradient>
<linearGradient id="paint5_linear_247_966" x1="8.52811" y1="15.4408" x2="20.7364" y2="15.4408" gradientUnits="userSpaceOnUse">
<stop stop-color="#7C0000"/>
<stop offset="0.2" stop-color="#F5F5F0"/>
<stop offset="0.75" stop-color="#E50C00"/>
</linearGradient>
<linearGradient id="paint6_linear_247_966" x1="8.52812" y1="15.2758" x2="20.2083" y2="15.2758" gradientUnits="userSpaceOnUse">
<stop stop-color="#7C0000"/>
<stop offset="0.75" stop-color="#E50C00"/>
</linearGradient>
<linearGradient id="paint7_linear_247_966" x1="8.26365" y1="15.2758" x2="20.4719" y2="15.2758" gradientUnits="userSpaceOnUse">
<stop stop-color="#7C0000"/>
<stop offset="0.2" stop-color="#F5F5F0"/>
<stop offset="0.75" stop-color="#E50C00"/>
</linearGradient>
<linearGradient id="paint8_linear_247_966" x1="8.26366" y1="15.1095" x2="19.9447" y2="15.1095" gradientUnits="userSpaceOnUse">
<stop stop-color="#7C0000"/>
<stop offset="0.75" stop-color="#E50C00"/>
</linearGradient>
<linearGradient id="paint9_linear_247_966" x1="8.00004" y1="15.1095" x2="20.2083" y2="15.1095" gradientUnits="userSpaceOnUse">
<stop stop-color="#7C0000"/>
<stop offset="0.2" stop-color="#F5F5F0"/>
<stop offset="0.75" stop-color="#E50C00"/>
</linearGradient>
<clipPath id="clip0_247_966">
<rect width="13" height="23" fill="white" transform="translate(8 3.8584)"/>
</clipPath>
</defs>
</svg>
