<svg width="25" height="25" viewBox="0 0 25 25" fill="none" xmlns="http://www.w3.org/2000/svg">
<circle cx="12.5" cy="12.1792" r="12" fill="white"/>
<path d="M13.291 9.60412C13.2432 9.55959 13.2049 9.50588 13.1783 9.4462C13.1517 9.38653 13.1374 9.32211 13.1363 9.25679C13.1351 9.19147 13.1471 9.12658 13.1716 9.06601C13.1961 9.00543 13.2325 8.9504 13.2787 8.90421C13.3249 8.85801 13.3799 8.82159 13.4405 8.79713C13.501 8.77266 13.5659 8.76064 13.6312 8.76179C13.6966 8.76295 13.761 8.77724 13.8207 8.80383C13.8803 8.83042 13.934 8.86876 13.9786 8.91656L16.5732 11.5112C16.6643 11.6024 16.7155 11.726 16.7155 11.8549C16.7155 11.9839 16.6643 12.1075 16.5732 12.1987L13.9786 14.7933C13.934 14.8411 13.8803 14.8794 13.8207 14.906C13.761 14.9326 13.6966 14.9469 13.6312 14.9481C13.5659 14.9492 13.501 14.9372 13.4405 14.9127C13.3799 14.8883 13.3249 14.8519 13.2787 14.8057C13.2325 14.7595 13.1961 14.7044 13.1716 14.6439C13.1471 14.5833 13.1351 14.5184 13.1363 14.4531C13.1374 14.3878 13.1517 14.3233 13.1783 14.2637C13.2049 14.204 13.2432 14.1503 13.291 14.1057L15.0553 12.3414L8.76994 12.3414C8.64091 12.3414 8.51717 12.2902 8.42594 12.1989C8.3347 12.1077 8.28345 11.984 8.28345 11.8549C8.28345 11.7259 8.3347 11.6022 8.42594 11.5109C8.51717 11.4197 8.64091 11.3684 8.76994 11.3684L15.0553 11.3684L13.291 9.60412Z" fill="#E50C00"/>
</svg>
