<svg width="24" height="25" viewBox="0 0 24 25" fill="none" xmlns="http://www.w3.org/2000/svg">
<circle cx="12" cy="12.5" r="12" fill="white"/>
<path d="M12.791 9.92492C12.7432 9.88039 12.7049 9.82668 12.6783 9.767C12.6517 9.70733 12.6374 9.64291 12.6363 9.57759C12.6351 9.51227 12.6471 9.44738 12.6716 9.38681C12.6961 9.32623 12.7325 9.2712 12.7787 9.22501C12.8249 9.17881 12.8799 9.14239 12.9405 9.11793C13.001 9.09346 13.0659 9.08144 13.1312 9.0826C13.1966 9.08375 13.261 9.09804 13.3207 9.12463C13.3803 9.15122 13.434 9.18956 13.4786 9.23736L16.0732 11.832C16.1643 11.9232 16.2155 12.0468 16.2155 12.1757C16.2155 12.3047 16.1643 12.4283 16.0732 12.5195L13.4786 15.1141C13.434 15.1619 13.3803 15.2002 13.3207 15.2268C13.261 15.2534 13.1966 15.2677 13.1312 15.2689C13.0659 15.27 13.001 15.258 12.9405 15.2335C12.8799 15.2091 12.8249 15.1727 12.7787 15.1265C12.7325 15.0803 12.6961 15.0252 12.6716 14.9647C12.6471 14.9041 12.6351 14.8392 12.6363 14.7739C12.6374 14.7086 12.6517 14.6441 12.6783 14.5845C12.7049 14.5248 12.7432 14.4711 12.791 14.4265L14.5553 12.6622L8.26994 12.6622C8.14091 12.6622 8.01717 12.611 7.92594 12.5197C7.8347 12.4285 7.78345 12.3048 7.78345 12.1757C7.78345 12.0467 7.8347 11.923 7.92594 11.8317C8.01717 11.7405 8.14091 11.6892 8.26994 11.6892L14.5553 11.6892L12.791 9.92492Z" fill="#E50C00"/>
</svg>
