<svg width="172" height="28" viewBox="0 0 172 28" fill="none" xmlns="http://www.w3.org/2000/svg">
<g filter="url(#filter0_i_248_4052)">
<rect width="28" height="28" rx="14" fill="url(#paint0_linear_248_4052)"/>
<rect x="0.5" y="0.5" width="27" height="27" rx="13.5" stroke="url(#paint1_linear_248_4052)"/>
</g>
<g clip-path="url(#clip0_248_4052)">
<path d="M17.4949 4.4867L15.2926 12.7993C15.2502 12.9583 15.3689 13.0734 15.5317 13.031L20.4881 11.7373C20.6754 11.6886 20.7949 11.8452 20.7059 12.0242L13.7541 26.0636C13.6244 26.3257 13.2548 26.3105 13.2904 26.0444L14.3721 17.9484C14.3915 17.8038 14.2763 17.7103 14.1262 17.7486L9.30209 19.0079C9.15374 19.0471 9.03846 18.9544 9.05626 18.8106L10.6287 6.19029C10.644 6.06883 10.7491 5.95377 10.8745 5.92101L17.2559 4.25498C17.4186 4.21263 17.5373 4.32689 17.4949 4.4867Z" fill="url(#paint2_linear_248_4052)"/>
<path d="M17.4949 4.4867L15.2926 12.7993C15.2502 12.9583 15.3689 13.0734 15.5317 13.031L20.4881 11.7373C20.6754 11.6886 20.7949 11.8452 20.7059 12.0242L13.7541 26.0636C13.6244 26.3257 13.2548 26.3105 13.2904 26.0444L14.3721 17.9484C14.3915 17.8038 14.2763 17.7103 14.1262 17.7486L9.30209 19.0079C9.15374 19.0471 9.03846 18.9544 9.05626 18.8106L10.6287 6.19029C10.644 6.06883 10.7491 5.95377 10.8745 5.92101L17.2559 4.25498C17.4186 4.21263 17.5373 4.32689 17.4949 4.4867Z" stroke="url(#paint3_linear_248_4052)" stroke-width="0.5" stroke-miterlimit="10"/>
<path d="M17.2312 4.31989L15.029 12.6325C14.9866 12.7915 15.1053 12.9065 15.268 12.8642L20.2244 11.5705C20.4117 11.5218 20.5312 11.6784 20.4422 11.8574L13.4904 25.8968C13.3607 26.1589 12.9911 26.1437 13.0267 25.8776L14.1084 17.7816C14.1279 17.6369 14.0126 17.5435 13.8626 17.5818L9.03842 18.8411C8.89007 18.8803 8.77479 18.7876 8.79259 18.6438L10.3642 6.02348C10.3794 5.90202 10.4846 5.78696 10.61 5.75419L16.9922 4.08896C17.1549 4.04661 17.2736 4.16088 17.2312 4.32069V4.31989Z" fill="url(#paint4_linear_248_4052)"/>
<path d="M16.9668 4.15467L14.7645 12.4672C14.7221 12.6263 14.8408 12.7413 15.0035 12.699L19.9599 11.4053C20.1473 11.3566 20.2668 11.5132 20.1778 11.6922L13.226 25.7316C13.0963 25.9936 12.7267 25.9785 12.7623 25.7124L13.8439 17.6164C13.8634 17.4717 13.7481 17.3782 13.5981 17.4166L8.77395 18.6759C8.62561 18.7151 8.51032 18.6224 8.52812 18.4785L10.1006 5.85826C10.1158 5.7368 10.2209 5.62174 10.3464 5.58898L16.7277 3.92295C16.8905 3.8806 17.0091 3.99486 16.9668 4.15467Z" fill="url(#paint5_linear_248_4052)"/>
<path d="M16.7032 3.98866L14.5009 12.3012C14.4585 12.4602 14.5772 12.5753 14.7399 12.533L19.6963 11.2393C19.8836 11.1905 20.0032 11.3472 19.9142 11.5261L12.9623 25.5655C12.8327 25.8276 12.4631 25.8125 12.4987 25.5464L13.5803 17.4503C13.5998 17.3057 13.4845 17.2122 13.3345 17.2506L8.51034 18.5099C8.362 18.549 8.24671 18.4563 8.26451 18.3125L9.83696 5.69224C9.85221 5.57079 9.95733 5.45572 10.0828 5.42296L16.4641 3.75693C16.6269 3.71458 16.7455 3.82885 16.7032 3.98866Z" fill="#E50C00"/>
<path d="M16.7032 3.98866L14.5009 12.3012C14.4585 12.4602 14.5772 12.5753 14.7399 12.533L19.6963 11.2393C19.8836 11.1905 20.0032 11.3472 19.9142 11.5261L12.9623 25.5655C12.8327 25.8276 12.4631 25.8125 12.4987 25.5464L13.5803 17.4503C13.5998 17.3057 13.4845 17.2122 13.3345 17.2506L8.51034 18.5099C8.362 18.549 8.24671 18.4563 8.26451 18.3125L9.83696 5.69224C9.85221 5.57079 9.95733 5.45572 10.0828 5.42296L16.4641 3.75693C16.6269 3.71458 16.7455 3.82885 16.7032 3.98866Z" fill="#E50C00" stroke="url(#paint6_linear_248_4052)" stroke-width="0.5" stroke-miterlimit="10"/>
</g>
<g filter="url(#filter1_i_248_4052)">
<rect x="36" width="28" height="28" rx="14" fill="url(#paint7_linear_248_4052)"/>
<rect x="36.5" y="0.5" width="27" height="27" rx="13.5" stroke="url(#paint8_linear_248_4052)"/>
</g>
<g clip-path="url(#clip1_248_4052)">
<path d="M53.4949 4.4867L51.2926 12.7993C51.2502 12.9583 51.3689 13.0734 51.5317 13.031L56.4881 11.7373C56.6754 11.6886 56.7949 11.8452 56.7059 12.0242L49.7541 26.0636C49.6244 26.3257 49.2548 26.3105 49.2904 26.0444L50.3721 17.9484C50.3915 17.8038 50.2763 17.7103 50.1262 17.7486L45.3021 19.0079C45.1537 19.0471 45.0385 18.9544 45.0563 18.8106L46.6287 6.19029C46.644 6.06883 46.7491 5.95377 46.8745 5.92101L53.2559 4.25498C53.4186 4.21263 53.5373 4.32689 53.4949 4.4867Z" fill="url(#paint9_linear_248_4052)"/>
<path d="M53.4949 4.4867L51.2926 12.7993C51.2502 12.9583 51.3689 13.0734 51.5317 13.031L56.4881 11.7373C56.6754 11.6886 56.7949 11.8452 56.7059 12.0242L49.7541 26.0636C49.6244 26.3257 49.2548 26.3105 49.2904 26.0444L50.3721 17.9484C50.3915 17.8038 50.2763 17.7103 50.1262 17.7486L45.3021 19.0079C45.1537 19.0471 45.0385 18.9544 45.0563 18.8106L46.6287 6.19029C46.644 6.06883 46.7491 5.95377 46.8745 5.92101L53.2559 4.25498C53.4186 4.21263 53.5373 4.32689 53.4949 4.4867Z" stroke="url(#paint10_linear_248_4052)" stroke-width="0.5" stroke-miterlimit="10"/>
<path d="M53.2312 4.31989L51.029 12.6325C50.9866 12.7915 51.1053 12.9065 51.268 12.8642L56.2244 11.5705C56.4117 11.5218 56.5312 11.6784 56.4422 11.8574L49.4904 25.8968C49.3607 26.1589 48.9911 26.1437 49.0267 25.8776L50.1084 17.7816C50.1279 17.6369 50.0126 17.5435 49.8626 17.5818L45.0384 18.8411C44.8901 18.8803 44.7748 18.7876 44.7926 18.6438L46.3642 6.02348C46.3794 5.90202 46.4846 5.78696 46.61 5.75419L52.9922 4.08896C53.1549 4.04661 53.2736 4.16088 53.2312 4.32069V4.31989Z" fill="url(#paint11_linear_248_4052)"/>
<path d="M52.9668 4.15467L50.7645 12.4672C50.7221 12.6263 50.8408 12.7413 51.0035 12.699L55.9599 11.4053C56.1473 11.3566 56.2668 11.5132 56.1778 11.6922L49.226 25.7316C49.0963 25.9936 48.7267 25.9785 48.7623 25.7124L49.8439 17.6164C49.8634 17.4717 49.7481 17.3782 49.5981 17.4166L44.7739 18.6759C44.6256 18.7151 44.5103 18.6224 44.5281 18.4785L46.1006 5.85826C46.1158 5.7368 46.2209 5.62174 46.3464 5.58898L52.7277 3.92295C52.8905 3.8806 53.0091 3.99486 52.9668 4.15467Z" fill="url(#paint12_linear_248_4052)"/>
<path d="M52.7032 3.98866L50.5009 12.3012C50.4585 12.4602 50.5772 12.5753 50.7399 12.533L55.6963 11.2393C55.8836 11.1905 56.0032 11.3472 55.9142 11.5261L48.9623 25.5655C48.8327 25.8276 48.4631 25.8125 48.4987 25.5464L49.5803 17.4503C49.5998 17.3057 49.4845 17.2122 49.3345 17.2506L44.5103 18.5099C44.362 18.549 44.2467 18.4563 44.2645 18.3125L45.837 5.69224C45.8522 5.57079 45.9573 5.45572 46.0828 5.42296L52.4641 3.75693C52.6269 3.71458 52.7455 3.82885 52.7032 3.98866Z" fill="#E50C00"/>
<path d="M52.7032 3.98866L50.5009 12.3012C50.4585 12.4602 50.5772 12.5753 50.7399 12.533L55.6963 11.2393C55.8836 11.1905 56.0032 11.3472 55.9142 11.5261L48.9623 25.5655C48.8327 25.8276 48.4631 25.8125 48.4987 25.5464L49.5803 17.4503C49.5998 17.3057 49.4845 17.2122 49.3345 17.2506L44.5103 18.5099C44.362 18.549 44.2467 18.4563 44.2645 18.3125L45.837 5.69224C45.8522 5.57079 45.9573 5.45572 46.0828 5.42296L52.4641 3.75693C52.6269 3.71458 52.7455 3.82885 52.7032 3.98866Z" fill="#E50C00" stroke="url(#paint13_linear_248_4052)" stroke-width="0.5" stroke-miterlimit="10"/>
</g>
<g filter="url(#filter2_i_248_4052)">
<rect x="72" width="28" height="28" rx="14" fill="url(#paint14_linear_248_4052)"/>
<rect x="72.5" y="0.5" width="27" height="27" rx="13.5" stroke="url(#paint15_linear_248_4052)"/>
</g>
<g clip-path="url(#clip2_248_4052)">
<path d="M89.4949 4.4867L87.2926 12.7993C87.2502 12.9583 87.3689 13.0734 87.5317 13.031L92.4881 11.7373C92.6754 11.6886 92.7949 11.8452 92.7059 12.0242L85.7541 26.0636C85.6244 26.3257 85.2548 26.3105 85.2904 26.0444L86.3721 17.9484C86.3915 17.8038 86.2763 17.7103 86.1262 17.7486L81.3021 19.0079C81.1537 19.0471 81.0385 18.9544 81.0563 18.8106L82.6287 6.19029C82.644 6.06883 82.7491 5.95377 82.8745 5.92101L89.2559 4.25498C89.4186 4.21263 89.5373 4.32689 89.4949 4.4867Z" fill="url(#paint16_linear_248_4052)"/>
<path d="M89.4949 4.4867L87.2926 12.7993C87.2502 12.9583 87.3689 13.0734 87.5317 13.031L92.4881 11.7373C92.6754 11.6886 92.7949 11.8452 92.7059 12.0242L85.7541 26.0636C85.6244 26.3257 85.2548 26.3105 85.2904 26.0444L86.3721 17.9484C86.3915 17.8038 86.2763 17.7103 86.1262 17.7486L81.3021 19.0079C81.1537 19.0471 81.0385 18.9544 81.0563 18.8106L82.6287 6.19029C82.644 6.06883 82.7491 5.95377 82.8745 5.92101L89.2559 4.25498C89.4186 4.21263 89.5373 4.32689 89.4949 4.4867Z" stroke="url(#paint17_linear_248_4052)" stroke-width="0.5" stroke-miterlimit="10"/>
<path d="M89.2312 4.31989L87.029 12.6325C86.9866 12.7915 87.1053 12.9065 87.268 12.8642L92.2244 11.5705C92.4117 11.5218 92.5312 11.6784 92.4422 11.8574L85.4904 25.8968C85.3607 26.1589 84.9911 26.1437 85.0267 25.8776L86.1084 17.7816C86.1279 17.6369 86.0126 17.5435 85.8626 17.5818L81.0384 18.8411C80.8901 18.8803 80.7748 18.7876 80.7926 18.6438L82.3642 6.02348C82.3794 5.90202 82.4846 5.78696 82.61 5.75419L88.9922 4.08896C89.1549 4.04661 89.2736 4.16088 89.2312 4.32069V4.31989Z" fill="url(#paint18_linear_248_4052)"/>
<path d="M88.9668 4.15467L86.7645 12.4672C86.7221 12.6263 86.8408 12.7413 87.0035 12.699L91.9599 11.4053C92.1473 11.3566 92.2668 11.5132 92.1778 11.6922L85.226 25.7316C85.0963 25.9936 84.7267 25.9785 84.7623 25.7124L85.8439 17.6164C85.8634 17.4717 85.7481 17.3782 85.5981 17.4166L80.7739 18.6759C80.6256 18.7151 80.5103 18.6224 80.5281 18.4785L82.1006 5.85826C82.1158 5.7368 82.2209 5.62174 82.3464 5.58898L88.7277 3.92295C88.8905 3.8806 89.0091 3.99486 88.9668 4.15467Z" fill="url(#paint19_linear_248_4052)"/>
<path d="M88.7032 3.98866L86.5009 12.3012C86.4585 12.4602 86.5772 12.5753 86.7399 12.533L91.6963 11.2393C91.8836 11.1905 92.0032 11.3472 91.9142 11.5261L84.9623 25.5655C84.8327 25.8276 84.4631 25.8125 84.4987 25.5464L85.5803 17.4503C85.5998 17.3057 85.4845 17.2122 85.3345 17.2506L80.5103 18.5099C80.362 18.549 80.2467 18.4563 80.2645 18.3125L81.837 5.69224C81.8522 5.57079 81.9573 5.45572 82.0828 5.42296L88.4641 3.75693C88.6269 3.71458 88.7455 3.82885 88.7032 3.98866Z" fill="#E50C00"/>
<path d="M88.7032 3.98866L86.5009 12.3012C86.4585 12.4602 86.5772 12.5753 86.7399 12.533L91.6963 11.2393C91.8836 11.1905 92.0032 11.3472 91.9142 11.5261L84.9623 25.5655C84.8327 25.8276 84.4631 25.8125 84.4987 25.5464L85.5803 17.4503C85.5998 17.3057 85.4845 17.2122 85.3345 17.2506L80.5103 18.5099C80.362 18.549 80.2467 18.4563 80.2645 18.3125L81.837 5.69224C81.8522 5.57079 81.9573 5.45572 82.0828 5.42296L88.4641 3.75693C88.6269 3.71458 88.7455 3.82885 88.7032 3.98866Z" fill="#E50C00" stroke="url(#paint20_linear_248_4052)" stroke-width="0.5" stroke-miterlimit="10"/>
</g>
<g filter="url(#filter3_i_248_4052)">
<rect x="108" width="28" height="28" rx="14" fill="url(#paint21_linear_248_4052)"/>
<rect x="108.5" y="0.5" width="27" height="27" rx="13.5" stroke="url(#paint22_linear_248_4052)"/>
</g>
<g clip-path="url(#clip3_248_4052)">
<path d="M125.495 4.4867L123.293 12.7993C123.25 12.9583 123.369 13.0734 123.532 13.031L128.488 11.7373C128.675 11.6886 128.795 11.8452 128.706 12.0242L121.754 26.0636C121.624 26.3257 121.255 26.3105 121.29 26.0444L122.372 17.9484C122.392 17.8038 122.276 17.7103 122.126 17.7486L117.302 19.0079C117.154 19.0471 117.038 18.9544 117.056 18.8106L118.629 6.19029C118.644 6.06883 118.749 5.95377 118.875 5.92101L125.256 4.25498C125.419 4.21263 125.537 4.32689 125.495 4.4867Z" fill="url(#paint23_linear_248_4052)"/>
<path d="M125.495 4.4867L123.293 12.7993C123.25 12.9583 123.369 13.0734 123.532 13.031L128.488 11.7373C128.675 11.6886 128.795 11.8452 128.706 12.0242L121.754 26.0636C121.624 26.3257 121.255 26.3105 121.29 26.0444L122.372 17.9484C122.392 17.8038 122.276 17.7103 122.126 17.7486L117.302 19.0079C117.154 19.0471 117.038 18.9544 117.056 18.8106L118.629 6.19029C118.644 6.06883 118.749 5.95377 118.875 5.92101L125.256 4.25498C125.419 4.21263 125.537 4.32689 125.495 4.4867Z" stroke="url(#paint24_linear_248_4052)" stroke-width="0.5" stroke-miterlimit="10"/>
<path d="M125.231 4.31989L123.029 12.6325C122.987 12.7915 123.105 12.9065 123.268 12.8642L128.224 11.5705C128.412 11.5218 128.531 11.6784 128.442 11.8574L121.49 25.8968C121.361 26.1589 120.991 26.1437 121.027 25.8776L122.108 17.7816C122.128 17.6369 122.013 17.5435 121.863 17.5818L117.038 18.8411C116.89 18.8803 116.775 18.7876 116.793 18.6438L118.364 6.02348C118.379 5.90202 118.485 5.78696 118.61 5.75419L124.992 4.08896C125.155 4.04661 125.274 4.16088 125.231 4.32069V4.31989Z" fill="url(#paint25_linear_248_4052)"/>
<path d="M124.967 4.15467L122.764 12.4672C122.722 12.6263 122.841 12.7413 123.004 12.699L127.96 11.4053C128.147 11.3566 128.267 11.5132 128.178 11.6922L121.226 25.7316C121.096 25.9936 120.727 25.9785 120.762 25.7124L121.844 17.6164C121.863 17.4717 121.748 17.3782 121.598 17.4166L116.774 18.6759C116.626 18.7151 116.51 18.6224 116.528 18.4785L118.101 5.85826C118.116 5.7368 118.221 5.62174 118.346 5.58898L124.728 3.92295C124.89 3.8806 125.009 3.99486 124.967 4.15467Z" fill="url(#paint26_linear_248_4052)"/>
<path d="M124.703 3.98866L122.501 12.3012C122.459 12.4602 122.577 12.5753 122.74 12.533L127.696 11.2393C127.884 11.1905 128.003 11.3472 127.914 11.5261L120.962 25.5655C120.833 25.8276 120.463 25.8125 120.499 25.5464L121.58 17.4503C121.6 17.3057 121.485 17.2122 121.334 17.2506L116.51 18.5099C116.362 18.549 116.247 18.4563 116.265 18.3125L117.837 5.69224C117.852 5.57079 117.957 5.45572 118.083 5.42296L124.464 3.75693C124.627 3.71458 124.746 3.82885 124.703 3.98866Z" fill="#E50C00"/>
<path d="M124.703 3.98866L122.501 12.3012C122.459 12.4602 122.577 12.5753 122.74 12.533L127.696 11.2393C127.884 11.1905 128.003 11.3472 127.914 11.5261L120.962 25.5655C120.833 25.8276 120.463 25.8125 120.499 25.5464L121.58 17.4503C121.6 17.3057 121.485 17.2122 121.334 17.2506L116.51 18.5099C116.362 18.549 116.247 18.4563 116.265 18.3125L117.837 5.69224C117.852 5.57079 117.957 5.45572 118.083 5.42296L124.464 3.75693C124.627 3.71458 124.746 3.82885 124.703 3.98866Z" fill="#E50C00" stroke="url(#paint27_linear_248_4052)" stroke-width="0.5" stroke-miterlimit="10"/>
</g>
<g filter="url(#filter4_i_248_4052)">
<rect x="144" width="28" height="28" rx="14" fill="url(#paint28_linear_248_4052)"/>
<rect x="144.5" y="0.5" width="27" height="27" rx="13.5" stroke="url(#paint29_linear_248_4052)"/>
</g>
<g clip-path="url(#clip4_248_4052)">
<path d="M161.495 4.4867L159.293 12.7993C159.25 12.9583 159.369 13.0734 159.532 13.031L164.488 11.7373C164.675 11.6886 164.795 11.8452 164.706 12.0242L157.754 26.0636C157.624 26.3257 157.255 26.3105 157.29 26.0444L158.372 17.9484C158.392 17.8038 158.276 17.7103 158.126 17.7486L153.302 19.0079C153.154 19.0471 153.038 18.9544 153.056 18.8106L154.629 6.19029C154.644 6.06883 154.749 5.95377 154.875 5.92101L161.256 4.25498C161.419 4.21263 161.537 4.32689 161.495 4.4867Z" fill="url(#paint30_linear_248_4052)"/>
<path d="M161.495 4.4867L159.293 12.7993C159.25 12.9583 159.369 13.0734 159.532 13.031L164.488 11.7373C164.675 11.6886 164.795 11.8452 164.706 12.0242L157.754 26.0636C157.624 26.3257 157.255 26.3105 157.29 26.0444L158.372 17.9484C158.392 17.8038 158.276 17.7103 158.126 17.7486L153.302 19.0079C153.154 19.0471 153.038 18.9544 153.056 18.8106L154.629 6.19029C154.644 6.06883 154.749 5.95377 154.875 5.92101L161.256 4.25498C161.419 4.21263 161.537 4.32689 161.495 4.4867Z" stroke="url(#paint31_linear_248_4052)" stroke-width="0.5" stroke-miterlimit="10"/>
<path d="M161.231 4.31989L159.029 12.6325C158.987 12.7915 159.105 12.9065 159.268 12.8642L164.224 11.5705C164.412 11.5218 164.531 11.6784 164.442 11.8574L157.49 25.8968C157.361 26.1589 156.991 26.1437 157.027 25.8776L158.108 17.7816C158.128 17.6369 158.013 17.5435 157.863 17.5818L153.038 18.8411C152.89 18.8803 152.775 18.7876 152.793 18.6438L154.364 6.02348C154.379 5.90202 154.485 5.78696 154.61 5.75419L160.992 4.08896C161.155 4.04661 161.274 4.16088 161.231 4.32069V4.31989Z" fill="url(#paint32_linear_248_4052)"/>
<path d="M160.967 4.15467L158.765 12.4672C158.722 12.6263 158.841 12.7413 159.004 12.699L163.96 11.4053C164.147 11.3566 164.267 11.5132 164.178 11.6922L157.226 25.7316C157.096 25.9936 156.727 25.9785 156.762 25.7124L157.844 17.6164C157.863 17.4717 157.748 17.3782 157.598 17.4166L152.774 18.6759C152.626 18.7151 152.51 18.6224 152.528 18.4785L154.101 5.85826C154.116 5.7368 154.221 5.62174 154.346 5.58898L160.728 3.92295C160.891 3.8806 161.009 3.99486 160.967 4.15467Z" fill="url(#paint33_linear_248_4052)"/>
<path d="M160.703 3.98866L158.501 12.3012C158.459 12.4602 158.577 12.5753 158.74 12.533L163.696 11.2393C163.884 11.1905 164.003 11.3472 163.914 11.5261L156.962 25.5655C156.833 25.8276 156.463 25.8125 156.499 25.5464L157.58 17.4503C157.6 17.3057 157.485 17.2122 157.334 17.2506L152.51 18.5099C152.362 18.549 152.247 18.4563 152.265 18.3125L153.837 5.69224C153.852 5.57079 153.957 5.45572 154.083 5.42296L160.464 3.75693C160.627 3.71458 160.746 3.82885 160.703 3.98866Z" fill="#E50C00"/>
<path d="M160.703 3.98866L158.501 12.3012C158.459 12.4602 158.577 12.5753 158.74 12.533L163.696 11.2393C163.884 11.1905 164.003 11.3472 163.914 11.5261L156.962 25.5655C156.833 25.8276 156.463 25.8125 156.499 25.5464L157.58 17.4503C157.6 17.3057 157.485 17.2122 157.334 17.2506L152.51 18.5099C152.362 18.549 152.247 18.4563 152.265 18.3125L153.837 5.69224C153.852 5.57079 153.957 5.45572 154.083 5.42296L160.464 3.75693C160.627 3.71458 160.746 3.82885 160.703 3.98866Z" fill="#E50C00" stroke="url(#paint34_linear_248_4052)" stroke-width="0.5" stroke-miterlimit="10"/>
</g>
<defs>
<filter id="filter0_i_248_4052" x="0" y="0" width="28" height="28" filterUnits="userSpaceOnUse" color-interpolation-filters="sRGB">
<feFlood flood-opacity="0" result="BackgroundImageFix"/>
<feBlend mode="normal" in="SourceGraphic" in2="BackgroundImageFix" result="shape"/>
<feColorMatrix in="SourceAlpha" type="matrix" values="0 0 0 0 0 0 0 0 0 0 0 0 0 0 0 0 0 0 127 0" result="hardAlpha"/>
<feMorphology radius="2" operator="erode" in="SourceAlpha" result="effect1_innerShadow_248_4052"/>
<feOffset/>
<feGaussianBlur stdDeviation="1"/>
<feComposite in2="hardAlpha" operator="arithmetic" k2="-1" k3="1"/>
<feColorMatrix type="matrix" values="0 0 0 0 0.94902 0 0 0 0 0.462745 0 0 0 0 0.423529 0 0 0 0.4 0"/>
<feBlend mode="normal" in2="shape" result="effect1_innerShadow_248_4052"/>
</filter>
<filter id="filter1_i_248_4052" x="36" y="0" width="28" height="28" filterUnits="userSpaceOnUse" color-interpolation-filters="sRGB">
<feFlood flood-opacity="0" result="BackgroundImageFix"/>
<feBlend mode="normal" in="SourceGraphic" in2="BackgroundImageFix" result="shape"/>
<feColorMatrix in="SourceAlpha" type="matrix" values="0 0 0 0 0 0 0 0 0 0 0 0 0 0 0 0 0 0 127 0" result="hardAlpha"/>
<feMorphology radius="2" operator="erode" in="SourceAlpha" result="effect1_innerShadow_248_4052"/>
<feOffset/>
<feGaussianBlur stdDeviation="1"/>
<feComposite in2="hardAlpha" operator="arithmetic" k2="-1" k3="1"/>
<feColorMatrix type="matrix" values="0 0 0 0 0.94902 0 0 0 0 0.462745 0 0 0 0 0.423529 0 0 0 0.4 0"/>
<feBlend mode="normal" in2="shape" result="effect1_innerShadow_248_4052"/>
</filter>
<filter id="filter2_i_248_4052" x="72" y="0" width="28" height="28" filterUnits="userSpaceOnUse" color-interpolation-filters="sRGB">
<feFlood flood-opacity="0" result="BackgroundImageFix"/>
<feBlend mode="normal" in="SourceGraphic" in2="BackgroundImageFix" result="shape"/>
<feColorMatrix in="SourceAlpha" type="matrix" values="0 0 0 0 0 0 0 0 0 0 0 0 0 0 0 0 0 0 127 0" result="hardAlpha"/>
<feMorphology radius="2" operator="erode" in="SourceAlpha" result="effect1_innerShadow_248_4052"/>
<feOffset/>
<feGaussianBlur stdDeviation="1"/>
<feComposite in2="hardAlpha" operator="arithmetic" k2="-1" k3="1"/>
<feColorMatrix type="matrix" values="0 0 0 0 0.94902 0 0 0 0 0.462745 0 0 0 0 0.423529 0 0 0 0.4 0"/>
<feBlend mode="normal" in2="shape" result="effect1_innerShadow_248_4052"/>
</filter>
<filter id="filter3_i_248_4052" x="108" y="0" width="28" height="28" filterUnits="userSpaceOnUse" color-interpolation-filters="sRGB">
<feFlood flood-opacity="0" result="BackgroundImageFix"/>
<feBlend mode="normal" in="SourceGraphic" in2="BackgroundImageFix" result="shape"/>
<feColorMatrix in="SourceAlpha" type="matrix" values="0 0 0 0 0 0 0 0 0 0 0 0 0 0 0 0 0 0 127 0" result="hardAlpha"/>
<feMorphology radius="2" operator="erode" in="SourceAlpha" result="effect1_innerShadow_248_4052"/>
<feOffset/>
<feGaussianBlur stdDeviation="1"/>
<feComposite in2="hardAlpha" operator="arithmetic" k2="-1" k3="1"/>
<feColorMatrix type="matrix" values="0 0 0 0 0.94902 0 0 0 0 0.462745 0 0 0 0 0.423529 0 0 0 0.4 0"/>
<feBlend mode="normal" in2="shape" result="effect1_innerShadow_248_4052"/>
</filter>
<filter id="filter4_i_248_4052" x="144" y="0" width="28" height="28" filterUnits="userSpaceOnUse" color-interpolation-filters="sRGB">
<feFlood flood-opacity="0" result="BackgroundImageFix"/>
<feBlend mode="normal" in="SourceGraphic" in2="BackgroundImageFix" result="shape"/>
<feColorMatrix in="SourceAlpha" type="matrix" values="0 0 0 0 0 0 0 0 0 0 0 0 0 0 0 0 0 0 127 0" result="hardAlpha"/>
<feMorphology radius="2" operator="erode" in="SourceAlpha" result="effect1_innerShadow_248_4052"/>
<feOffset/>
<feGaussianBlur stdDeviation="1"/>
<feComposite in2="hardAlpha" operator="arithmetic" k2="-1" k3="1"/>
<feColorMatrix type="matrix" values="0 0 0 0 0.94902 0 0 0 0 0.462745 0 0 0 0 0.423529 0 0 0 0.4 0"/>
<feBlend mode="normal" in2="shape" result="effect1_innerShadow_248_4052"/>
</filter>
<linearGradient id="paint0_linear_248_4052" x1="14" y1="0" x2="14" y2="28" gradientUnits="userSpaceOnUse">
<stop stop-color="#F2766C" stop-opacity="0.12"/>
<stop offset="0.5" stop-color="#F2766C" stop-opacity="0.04"/>
<stop offset="1" stop-color="#F2766C" stop-opacity="0.07"/>
</linearGradient>
<linearGradient id="paint1_linear_248_4052" x1="14" y1="0" x2="14" y2="28" gradientUnits="userSpaceOnUse">
<stop stop-color="#F2766C" stop-opacity="0.32"/>
<stop offset="0.5" stop-color="#F2766C" stop-opacity="0.1"/>
<stop offset="1" stop-color="#F2766C" stop-opacity="0.16"/>
</linearGradient>
<linearGradient id="paint2_linear_248_4052" x1="14.8908" y1="0.644803" x2="14.8908" y2="28.1525" gradientUnits="userSpaceOnUse">
<stop stop-color="#ECD6B1"/>
<stop offset="0.5" stop-color="#F2766C"/>
<stop offset="1" stop-color="#E73022"/>
</linearGradient>
<linearGradient id="paint3_linear_248_4052" x1="14.8908" y1="0.644803" x2="14.8908" y2="28.1525" gradientUnits="userSpaceOnUse">
<stop stop-color="#ECD6B1"/>
<stop offset="0.5" stop-color="#F2766C"/>
<stop offset="1" stop-color="#E73022"/>
</linearGradient>
<linearGradient id="paint4_linear_248_4052" x1="14.6272" y1="0.478919" x2="14.6272" y2="27.9856" gradientUnits="userSpaceOnUse">
<stop stop-color="#ECD6B1"/>
<stop offset="0.5" stop-color="#F2766C"/>
<stop offset="1" stop-color="#E73022"/>
</linearGradient>
<linearGradient id="paint5_linear_248_4052" x1="14.3627" y1="0.312773" x2="14.3627" y2="27.8205" gradientUnits="userSpaceOnUse">
<stop stop-color="#ECD6B1"/>
<stop offset="0.5" stop-color="#F2766C"/>
<stop offset="1" stop-color="#E73022"/>
</linearGradient>
<linearGradient id="paint6_linear_248_4052" x1="14.0991" y1="0.146757" x2="14.0991" y2="27.6545" gradientUnits="userSpaceOnUse">
<stop stop-color="#ECD6B1"/>
<stop offset="0.5" stop-color="#F2766C"/>
<stop offset="1" stop-color="#E73022"/>
</linearGradient>
<linearGradient id="paint7_linear_248_4052" x1="50" y1="0" x2="50" y2="28" gradientUnits="userSpaceOnUse">
<stop stop-color="#F2766C" stop-opacity="0.12"/>
<stop offset="0.5" stop-color="#F2766C" stop-opacity="0.04"/>
<stop offset="1" stop-color="#F2766C" stop-opacity="0.07"/>
</linearGradient>
<linearGradient id="paint8_linear_248_4052" x1="50" y1="0" x2="50" y2="28" gradientUnits="userSpaceOnUse">
<stop stop-color="#F2766C" stop-opacity="0.32"/>
<stop offset="0.5" stop-color="#F2766C" stop-opacity="0.1"/>
<stop offset="1" stop-color="#F2766C" stop-opacity="0.16"/>
</linearGradient>
<linearGradient id="paint9_linear_248_4052" x1="50.8908" y1="0.644803" x2="50.8908" y2="28.1525" gradientUnits="userSpaceOnUse">
<stop stop-color="#ECD6B1"/>
<stop offset="0.5" stop-color="#F2766C"/>
<stop offset="1" stop-color="#E73022"/>
</linearGradient>
<linearGradient id="paint10_linear_248_4052" x1="50.8908" y1="0.644803" x2="50.8908" y2="28.1525" gradientUnits="userSpaceOnUse">
<stop stop-color="#ECD6B1"/>
<stop offset="0.5" stop-color="#F2766C"/>
<stop offset="1" stop-color="#E73022"/>
</linearGradient>
<linearGradient id="paint11_linear_248_4052" x1="50.6272" y1="0.478919" x2="50.6272" y2="27.9856" gradientUnits="userSpaceOnUse">
<stop stop-color="#ECD6B1"/>
<stop offset="0.5" stop-color="#F2766C"/>
<stop offset="1" stop-color="#E73022"/>
</linearGradient>
<linearGradient id="paint12_linear_248_4052" x1="50.3627" y1="0.312773" x2="50.3627" y2="27.8205" gradientUnits="userSpaceOnUse">
<stop stop-color="#ECD6B1"/>
<stop offset="0.5" stop-color="#F2766C"/>
<stop offset="1" stop-color="#E73022"/>
</linearGradient>
<linearGradient id="paint13_linear_248_4052" x1="50.0991" y1="0.146757" x2="50.0991" y2="27.6545" gradientUnits="userSpaceOnUse">
<stop stop-color="#ECD6B1"/>
<stop offset="0.5" stop-color="#F2766C"/>
<stop offset="1" stop-color="#E73022"/>
</linearGradient>
<linearGradient id="paint14_linear_248_4052" x1="86" y1="0" x2="86" y2="28" gradientUnits="userSpaceOnUse">
<stop stop-color="#F2766C" stop-opacity="0.12"/>
<stop offset="0.5" stop-color="#F2766C" stop-opacity="0.04"/>
<stop offset="1" stop-color="#F2766C" stop-opacity="0.07"/>
</linearGradient>
<linearGradient id="paint15_linear_248_4052" x1="86" y1="0" x2="86" y2="28" gradientUnits="userSpaceOnUse">
<stop stop-color="#F2766C" stop-opacity="0.32"/>
<stop offset="0.5" stop-color="#F2766C" stop-opacity="0.1"/>
<stop offset="1" stop-color="#F2766C" stop-opacity="0.16"/>
</linearGradient>
<linearGradient id="paint16_linear_248_4052" x1="86.8908" y1="0.644803" x2="86.8908" y2="28.1525" gradientUnits="userSpaceOnUse">
<stop stop-color="#ECD6B1"/>
<stop offset="0.5" stop-color="#F2766C"/>
<stop offset="1" stop-color="#E73022"/>
</linearGradient>
<linearGradient id="paint17_linear_248_4052" x1="86.8908" y1="0.644803" x2="86.8908" y2="28.1525" gradientUnits="userSpaceOnUse">
<stop stop-color="#ECD6B1"/>
<stop offset="0.5" stop-color="#F2766C"/>
<stop offset="1" stop-color="#E73022"/>
</linearGradient>
<linearGradient id="paint18_linear_248_4052" x1="86.6272" y1="0.478919" x2="86.6272" y2="27.9856" gradientUnits="userSpaceOnUse">
<stop stop-color="#ECD6B1"/>
<stop offset="0.5" stop-color="#F2766C"/>
<stop offset="1" stop-color="#E73022"/>
</linearGradient>
<linearGradient id="paint19_linear_248_4052" x1="86.3627" y1="0.312773" x2="86.3627" y2="27.8205" gradientUnits="userSpaceOnUse">
<stop stop-color="#ECD6B1"/>
<stop offset="0.5" stop-color="#F2766C"/>
<stop offset="1" stop-color="#E73022"/>
</linearGradient>
<linearGradient id="paint20_linear_248_4052" x1="86.0991" y1="0.146757" x2="86.0991" y2="27.6545" gradientUnits="userSpaceOnUse">
<stop stop-color="#ECD6B1"/>
<stop offset="0.5" stop-color="#F2766C"/>
<stop offset="1" stop-color="#E73022"/>
</linearGradient>
<linearGradient id="paint21_linear_248_4052" x1="122" y1="0" x2="122" y2="28" gradientUnits="userSpaceOnUse">
<stop stop-color="#F2766C" stop-opacity="0.12"/>
<stop offset="0.5" stop-color="#F2766C" stop-opacity="0.04"/>
<stop offset="1" stop-color="#F2766C" stop-opacity="0.07"/>
</linearGradient>
<linearGradient id="paint22_linear_248_4052" x1="122" y1="0" x2="122" y2="28" gradientUnits="userSpaceOnUse">
<stop stop-color="#F2766C" stop-opacity="0.32"/>
<stop offset="0.5" stop-color="#F2766C" stop-opacity="0.1"/>
<stop offset="1" stop-color="#F2766C" stop-opacity="0.16"/>
</linearGradient>
<linearGradient id="paint23_linear_248_4052" x1="122.891" y1="0.644803" x2="122.891" y2="28.1525" gradientUnits="userSpaceOnUse">
<stop stop-color="#ECD6B1"/>
<stop offset="0.5" stop-color="#F2766C"/>
<stop offset="1" stop-color="#E73022"/>
</linearGradient>
<linearGradient id="paint24_linear_248_4052" x1="122.891" y1="0.644803" x2="122.891" y2="28.1525" gradientUnits="userSpaceOnUse">
<stop stop-color="#ECD6B1"/>
<stop offset="0.5" stop-color="#F2766C"/>
<stop offset="1" stop-color="#E73022"/>
</linearGradient>
<linearGradient id="paint25_linear_248_4052" x1="122.627" y1="0.478919" x2="122.627" y2="27.9856" gradientUnits="userSpaceOnUse">
<stop stop-color="#ECD6B1"/>
<stop offset="0.5" stop-color="#F2766C"/>
<stop offset="1" stop-color="#E73022"/>
</linearGradient>
<linearGradient id="paint26_linear_248_4052" x1="122.363" y1="0.312773" x2="122.363" y2="27.8205" gradientUnits="userSpaceOnUse">
<stop stop-color="#ECD6B1"/>
<stop offset="0.5" stop-color="#F2766C"/>
<stop offset="1" stop-color="#E73022"/>
</linearGradient>
<linearGradient id="paint27_linear_248_4052" x1="122.099" y1="0.146757" x2="122.099" y2="27.6545" gradientUnits="userSpaceOnUse">
<stop stop-color="#ECD6B1"/>
<stop offset="0.5" stop-color="#F2766C"/>
<stop offset="1" stop-color="#E73022"/>
</linearGradient>
<linearGradient id="paint28_linear_248_4052" x1="158" y1="0" x2="158" y2="28" gradientUnits="userSpaceOnUse">
<stop stop-color="#F2766C" stop-opacity="0.12"/>
<stop offset="0.5" stop-color="#F2766C" stop-opacity="0.04"/>
<stop offset="1" stop-color="#F2766C" stop-opacity="0.07"/>
</linearGradient>
<linearGradient id="paint29_linear_248_4052" x1="158" y1="0" x2="158" y2="28" gradientUnits="userSpaceOnUse">
<stop stop-color="#F2766C" stop-opacity="0.32"/>
<stop offset="0.5" stop-color="#F2766C" stop-opacity="0.1"/>
<stop offset="1" stop-color="#F2766C" stop-opacity="0.16"/>
</linearGradient>
<linearGradient id="paint30_linear_248_4052" x1="158.891" y1="0.644803" x2="158.891" y2="28.1525" gradientUnits="userSpaceOnUse">
<stop stop-color="#ECD6B1"/>
<stop offset="0.5" stop-color="#F2766C"/>
<stop offset="1" stop-color="#E73022"/>
</linearGradient>
<linearGradient id="paint31_linear_248_4052" x1="158.891" y1="0.644803" x2="158.891" y2="28.1525" gradientUnits="userSpaceOnUse">
<stop stop-color="#ECD6B1"/>
<stop offset="0.5" stop-color="#F2766C"/>
<stop offset="1" stop-color="#E73022"/>
</linearGradient>
<linearGradient id="paint32_linear_248_4052" x1="158.627" y1="0.478919" x2="158.627" y2="27.9856" gradientUnits="userSpaceOnUse">
<stop stop-color="#ECD6B1"/>
<stop offset="0.5" stop-color="#F2766C"/>
<stop offset="1" stop-color="#E73022"/>
</linearGradient>
<linearGradient id="paint33_linear_248_4052" x1="158.363" y1="0.312773" x2="158.363" y2="27.8205" gradientUnits="userSpaceOnUse">
<stop stop-color="#ECD6B1"/>
<stop offset="0.5" stop-color="#F2766C"/>
<stop offset="1" stop-color="#E73022"/>
</linearGradient>
<linearGradient id="paint34_linear_248_4052" x1="158.099" y1="0.146757" x2="158.099" y2="27.6545" gradientUnits="userSpaceOnUse">
<stop stop-color="#ECD6B1"/>
<stop offset="0.5" stop-color="#F2766C"/>
<stop offset="1" stop-color="#E73022"/>
</linearGradient>
<clipPath id="clip0_248_4052">
<rect width="13" height="23" fill="white" transform="translate(8 3.5)"/>
</clipPath>
<clipPath id="clip1_248_4052">
<rect width="13" height="23" fill="white" transform="translate(44 3.5)"/>
</clipPath>
<clipPath id="clip2_248_4052">
<rect width="13" height="23" fill="white" transform="translate(80 3.5)"/>
</clipPath>
<clipPath id="clip3_248_4052">
<rect width="13" height="23" fill="white" transform="translate(116 3.5)"/>
</clipPath>
<clipPath id="clip4_248_4052">
<rect width="13" height="23" fill="white" transform="translate(152 3.5)"/>
</clipPath>
</defs>
</svg>
