<svg width="81" height="91" viewBox="0 0 81 91" fill="none" xmlns="http://www.w3.org/2000/svg">
<path d="M3.79492 53.8946C8.0463 47.8495 12.2753 41.7909 16.5535 35.7637C20.1471 30.7014 20.2008 26.1283 16.6341 21.0346C12.7094 15.4248 8.77575 9.81951 4.85105 4.2097C4.51542 3.7295 4.20216 3.23135 4.04105 2.53125C4.52437 2.83642 5.02559 3.11467 5.491 3.44228C11.2326 7.49032 16.9608 11.5518 22.7069 15.5909C27.2491 18.7862 31.9525 18.7907 36.4813 15.6088C42.1782 11.6057 47.8571 7.58007 53.545 3.56794C54.0776 3.19096 54.628 2.83642 55.3798 2.64793C54.8921 3.37048 54.4132 4.09751 53.912 4.81107C50.0858 10.2683 46.2506 15.7165 42.4288 21.1738C39.0322 26.0206 39.0187 30.5982 42.3975 35.4451C46.3132 41.0594 50.2558 46.6602 54.185 52.2655C54.5251 52.7502 54.8339 53.2529 54.9234 54.0382C54.2118 53.5446 53.5003 53.0599 52.7932 52.5617C47.4007 48.765 42.0171 44.9593 36.6201 41.1671C31.8048 37.7833 27.2357 37.7922 22.3936 41.203C16.2671 45.5203 10.1496 49.8511 4.02763 54.1774C3.95603 54.0831 3.87995 53.9844 3.80835 53.8901L3.79492 53.8946Z" fill="url(#paint0_linear_247_1389)"/>
<path d="M59.9848 90.9999C56.4539 88.5091 52.9275 86.0094 49.3876 83.5276C46.1074 81.2254 43.6013 81.2299 40.2986 83.5501C37.3495 85.6235 34.4183 87.7148 31.4602 89.7792C30.9948 90.1068 30.601 90.6095 29.6389 90.6454C31.7019 87.6924 33.6396 84.9144 35.5863 82.1409C39.8019 76.1406 39.7974 74.9783 35.5416 68.9646C33.5456 66.1462 31.5676 63.3144 29.8223 60.2312C32.9863 62.4617 36.1636 64.6742 39.3096 66.9316C43.8564 70.1987 45.7896 70.2302 50.3364 67.0348C53.5316 64.7864 56.7269 62.538 60.025 60.2178C60.1459 60.864 59.7297 61.1737 59.497 61.5103C57.1968 64.8268 54.8563 68.1164 52.5605 71.4329C50.5914 74.2827 50.578 76.935 52.5426 79.7803C55.0755 83.4513 57.6532 87.091 60.213 90.7486L59.9848 91.0044V90.9999Z" fill="url(#paint1_linear_247_1389)"/>
<path d="M60.0653 40.8575C61.7077 38.5148 63.359 36.1811 64.988 33.8295C66.6259 31.4689 66.6259 29.786 64.988 27.4253C63.3545 25.0692 61.6987 22.7266 60.2354 20.1191C61.7748 21.1917 63.3143 22.2554 64.8492 23.3369C70.5192 27.3266 70.555 27.3266 76.1669 23.3504C77.6973 22.2688 79.2323 21.1917 81 20.3301C79.3845 22.6413 77.76 24.9481 76.149 27.2638C74.3858 29.7949 74.3813 31.442 76.1355 33.9686C77.7555 36.2978 79.389 38.6225 80.7986 41.1806C78.5297 39.5829 76.2653 37.9808 73.9964 36.3831C71.2621 34.4578 69.745 34.4533 67.0241 36.3651C64.7866 37.9359 62.549 39.5156 60.3159 41.0953L60.0653 40.8575Z" fill="url(#paint2_linear_247_1389)"/>
<path d="M3.03412 53.3873C7.2855 47.3422 11.5145 41.2836 15.7927 35.2564C19.3863 30.1941 19.44 25.621 15.8733 20.5273C11.9486 14.9175 8.01495 9.31218 4.09025 3.70238C3.75462 3.22218 3.44136 2.72403 3.28025 2.02393C3.76357 2.3291 4.26478 2.60735 4.7302 2.93496C10.4718 6.98299 16.2 11.0445 21.9461 15.0836C26.4883 18.2789 31.1917 18.2834 35.7205 15.1015C41.4174 11.0983 47.0963 7.07275 52.7842 3.06062C53.3168 2.68364 53.8672 2.3291 54.619 2.14061C54.1312 2.86315 53.6524 3.59018 53.1512 4.30375C49.3249 9.76097 45.4898 15.2092 41.668 20.6664C38.2714 25.5133 38.2579 30.0909 41.6367 34.9378C45.5524 40.5521 49.495 46.1529 53.4242 51.7582C53.7643 52.2429 54.0731 52.7455 54.1626 53.5309C53.451 53.0372 52.7395 52.5526 52.0324 52.0544C46.6399 48.2577 41.2563 44.452 35.8593 40.6598C31.044 37.2759 26.4749 37.2849 21.6328 40.6957C15.5063 45.013 9.38881 49.3437 3.26683 53.67C3.19522 53.5758 3.11915 53.4771 3.04754 53.3828L3.03412 53.3873Z" fill="url(#paint3_linear_247_1389)"/>
<path d="M59.2284 90.4926C55.6975 88.0018 52.1711 85.5021 48.6313 83.0203C45.351 80.718 42.8449 80.7225 39.5423 83.0427C36.5932 85.1161 33.662 87.2075 30.7039 89.2719C30.2385 89.5995 29.8447 90.1021 28.8825 90.138C30.9455 87.185 32.8833 84.407 34.83 81.6336C39.0455 75.6333 39.0411 74.471 34.7852 68.4573C32.7893 65.6389 30.8113 62.8071 29.066 59.7239C32.2299 61.9544 35.4073 64.1669 38.5533 66.4243C43.1 69.6914 45.0333 69.7228 49.58 66.5275C52.7753 64.2791 55.9705 62.0307 59.2687 59.7104C59.3895 60.3567 58.9733 60.6664 58.7406 61.0029C56.4404 64.3195 54.0999 67.609 51.8042 70.9256C49.8351 73.7753 49.8217 76.4277 51.7863 79.273C54.3192 82.944 56.8969 86.5837 59.4566 90.2412L59.2284 90.497V90.4926Z" fill="url(#paint4_linear_247_1389)"/>
<path d="M59.3045 40.3501C60.9469 38.0075 62.5982 35.6738 64.2272 33.3222C65.8651 30.9616 65.8651 29.2786 64.2272 26.918C62.5937 24.5619 60.9379 22.2193 59.4746 19.6118C61.014 20.6844 62.5535 21.748 64.0884 22.8296C69.7584 26.8193 69.7942 26.8193 75.406 22.8431C76.9365 21.7615 78.4715 20.6844 80.2392 19.8227C78.6237 22.134 76.9992 24.4407 75.3882 26.7565C73.6249 29.2876 73.6205 30.9346 75.3747 33.4613C76.9947 35.7905 78.6282 38.1152 80.0378 40.6733C77.7689 39.0756 75.5045 37.4734 73.2356 35.8758C70.5013 33.9505 68.9842 33.946 66.2633 35.8578C64.0258 37.4286 61.7882 39.0083 59.5551 40.588L59.3045 40.3501Z" fill="url(#paint5_linear_247_1389)"/>
<path d="M2.27783 52.8804C6.52921 46.8352 10.7582 40.7767 15.0365 34.7495C18.63 29.6872 18.6837 25.1141 15.117 20.0204C11.1878 14.4151 7.25419 8.80974 3.32949 3.19994C2.99385 2.71974 2.68059 2.22159 2.51949 1.52148C3.0028 1.82666 3.50402 2.1049 3.96943 2.43252C9.71104 6.48055 15.4392 10.5421 21.1853 14.5811C25.7276 17.7765 30.4309 17.7809 34.9598 14.5991C40.6566 10.5959 46.3356 6.57031 52.0235 2.55818C52.556 2.1812 53.1064 1.82666 53.8583 1.63817C53.3705 2.36071 52.8916 3.08774 52.3904 3.80131C48.5642 9.25853 44.729 14.7068 40.9072 20.164C37.5106 25.0109 37.4972 29.5885 40.8759 34.4353C44.7916 40.0496 48.7342 45.6504 52.6634 51.2558C53.0035 51.7405 53.3123 52.2431 53.4018 53.0285C52.6903 52.5348 51.9787 52.0501 51.2716 51.552C45.8791 47.7552 40.4955 43.9496 35.0985 40.1573C30.2832 36.7735 25.7141 36.7825 20.872 40.1932C14.7456 44.5105 8.62805 48.8413 2.50606 53.1676C2.43446 53.0733 2.35838 52.9746 2.28678 52.8804H2.27783Z" fill="url(#paint6_linear_247_1389)"/>
<path d="M58.4677 89.9857C54.9368 87.495 51.4104 84.9953 47.8705 82.5135C44.5903 80.2112 42.0842 80.2157 38.7815 82.5359C35.8324 84.6093 32.9012 86.7006 29.9431 88.765C29.4777 89.0926 29.0839 89.5953 28.1218 89.6312C30.1848 86.6782 32.1225 83.9002 34.0692 81.1267C38.2848 75.1265 38.2803 73.9641 34.0245 67.9504C32.0286 65.1321 30.0505 62.3002 28.3052 59.2171C31.4692 61.4475 34.6465 63.66 37.7925 65.9174C42.3393 69.1846 44.2725 69.216 48.8193 66.0206C52.0145 63.7722 55.2098 61.5238 58.508 59.2036C58.6288 59.8499 58.2126 60.1595 57.9799 60.4961C55.6797 63.8126 53.3392 67.1022 51.0434 70.4187C49.0744 73.2685 49.0609 75.9208 51.0255 78.7661C53.5584 82.4372 56.1361 86.0768 58.6959 89.7344L58.4677 89.9902V89.9857Z" fill="url(#paint7_linear_247_1389)"/>
<path d="M58.5438 39.8433C60.1861 37.5006 61.8375 35.167 63.4664 32.8153C65.1043 30.4547 65.1043 28.7718 63.4664 26.4112C61.833 24.0551 60.1772 21.7124 58.7138 19.105C60.2533 20.1776 61.7927 21.2412 63.3277 22.3228C68.9977 26.3125 69.0335 26.3125 74.6453 22.3362C76.1758 21.2547 77.7108 20.1776 79.4785 19.3159C77.8629 21.6271 76.2385 23.9339 74.6274 26.2496C72.8642 28.7808 72.8597 30.4278 74.614 32.9545C76.234 35.2837 77.8674 37.6084 79.2771 40.1664C77.0082 38.5688 74.7438 36.9666 72.4749 35.3689C69.7406 33.4436 68.2235 33.4391 65.5026 35.351C63.265 36.9217 61.0275 38.5014 58.7944 40.0812L58.5438 39.8433Z" fill="url(#paint8_linear_247_1389)"/>
<path d="M1.51709 52.373C5.76847 46.3279 9.99748 40.2693 14.2757 34.2422C17.8692 29.1799 17.9229 24.6068 14.3563 19.5131C10.4271 13.9032 6.49792 8.30242 2.56875 2.69261C2.23311 2.21241 1.91985 1.71426 1.75875 1.01416C2.24206 1.31933 2.74328 1.59758 3.20869 1.92519C8.95029 5.97323 14.6785 10.0347 20.4245 14.0738C24.9668 17.2691 29.6702 17.2736 34.199 14.0917C39.8959 10.0886 45.5748 6.06298 51.2627 2.05085C51.7953 1.67387 52.3457 1.31933 53.0975 1.13084C52.6097 1.85339 52.1309 2.58042 51.6297 3.29398C47.8034 8.7512 43.9682 14.1994 40.1465 19.6567C36.7499 24.5035 36.7364 29.0811 40.1152 33.928C44.0309 39.5423 47.9735 45.1431 51.9027 50.7484C52.2428 51.2331 52.5516 51.7358 52.6411 52.5211C51.9295 52.0275 51.218 51.5428 50.5109 51.0446C45.1184 47.2479 39.7348 43.4422 34.3378 39.65C29.5225 36.2662 24.9534 36.2751 20.1113 39.6859C13.9848 44.0032 7.86731 48.334 1.74532 52.6603C1.67372 52.566 1.59764 52.4673 1.52604 52.373H1.51709Z" fill="url(#paint9_linear_247_1389)"/>
<path d="M57.7069 89.4784C54.176 86.9877 50.6496 84.4879 47.1098 82.0061C43.8295 79.7039 41.3235 79.7084 38.0208 82.0286C35.0717 84.102 32.1405 86.1933 29.1824 88.2577C28.717 88.5853 28.3232 89.088 27.361 89.1239C29.4241 86.1709 31.3618 83.3929 33.3085 80.6194C37.5241 74.6192 37.5196 73.4568 33.2637 67.4431C31.2678 64.6247 29.2898 61.7929 27.5445 58.7098C30.7084 60.9402 33.8858 63.1527 37.0318 65.4101C41.5785 68.6773 43.5118 68.7087 48.0585 65.5133C51.2538 63.2649 54.449 61.0165 57.7472 58.6963C57.868 59.3425 57.4519 59.6522 57.2191 59.9888C54.9189 63.3053 52.5784 66.5949 50.2827 69.9114C48.3136 72.7612 48.3002 75.4135 50.2648 78.2588C52.7977 81.9299 55.3754 85.5695 57.9352 89.2271L57.7069 89.4829V89.4784Z" fill="url(#paint10_linear_247_1389)"/>
<path d="M57.7875 39.336C59.4299 36.9933 61.0812 34.6596 62.7101 32.308C64.348 29.9474 64.348 28.2645 62.7101 25.9039C61.0767 23.5477 59.4209 21.2051 57.9575 18.5977C59.497 19.6703 61.0364 20.7339 62.5714 21.8154C68.2414 25.8051 68.2772 25.8051 73.889 21.8289C75.4195 20.7473 76.9545 19.6703 78.7222 18.8086C77.1066 21.1198 75.4822 23.4266 73.8711 25.7423C72.1079 28.2734 72.1034 29.9205 73.8577 32.4471C75.4777 34.7763 77.1111 37.101 78.5208 39.6591C76.2519 38.0614 73.9875 36.4593 71.7186 34.8616C68.9843 32.9363 67.4672 32.9318 64.7463 34.8437C62.5087 36.4144 60.2712 37.9941 58.0381 39.5738L57.7875 39.336Z" fill="url(#paint11_linear_247_1389)"/>
<path d="M0.760803 51.8662C5.01218 45.8211 9.24119 39.7625 13.5194 33.7353C17.113 28.673 17.1667 24.0999 13.6 19.0062C9.6708 13.3964 5.73716 7.79109 1.81246 2.18578C1.47683 1.70558 1.16357 1.20743 1.00246 0.507324C1.48578 0.812498 1.98699 1.09074 2.45241 1.41836C8.19401 5.46639 13.9222 9.52789 19.6683 13.5669C24.2105 16.7623 28.9139 16.7668 33.4427 13.5849C39.1396 9.58174 44.8185 5.55615 50.5064 1.54402C51.039 1.16704 51.5894 0.812498 52.3412 0.624008C51.8535 1.34655 51.3746 2.07358 50.8734 2.78715C47.0472 8.24437 43.212 13.6926 39.3902 19.1498C35.9936 23.9967 35.9801 28.5743 39.3589 33.4212C43.2746 39.0355 47.2172 44.6363 51.1464 50.2416C51.4865 50.7263 51.7953 51.2289 51.8848 52.0143C51.1732 51.5206 50.4617 51.036 49.7546 50.5378C44.3621 46.7411 38.9785 42.9354 33.5815 39.1432C28.7662 35.7593 24.1971 35.7683 19.355 39.1791C13.2285 43.4964 7.11102 47.8271 0.989035 52.1534C0.917433 52.0592 0.841356 51.9605 0.769753 51.8662H0.760803Z" fill="url(#paint12_linear_247_1389)"/>
<path d="M56.9506 88.9716C53.4198 86.4808 49.8934 83.9811 46.3535 81.4993C43.0732 79.197 40.5672 79.2015 37.2645 81.5217C34.3154 83.5951 31.3842 85.6865 28.4261 87.7509C27.9607 88.0785 27.5669 88.5811 26.6047 88.617C28.6678 85.664 30.6055 82.886 32.5522 80.1126C36.7678 74.1123 36.7633 72.95 32.5074 66.9363C30.5115 64.1179 28.5335 61.2861 26.7882 58.2029C29.9521 60.4334 33.1295 62.6459 36.2755 64.9033C40.8222 68.1704 42.7555 68.2018 47.3022 65.0065C50.4975 62.7581 53.6927 60.5097 56.9909 58.1895C57.1118 58.8357 56.6956 59.1454 56.4629 59.4819C54.1626 62.7985 51.8221 66.0881 49.5264 69.4046C47.5573 72.2543 47.5439 74.9067 49.5085 77.752C52.0414 81.423 54.6191 85.0627 57.1789 88.7202L56.9506 88.9761V88.9716Z" fill="url(#paint13_linear_247_1389)"/>
<path d="M57.0267 38.8291C58.6691 36.4865 60.3204 34.1528 61.9494 31.8012C63.5873 29.4406 63.5873 27.7576 61.9494 25.397C60.316 23.0409 58.6602 20.6983 57.1968 18.0908C58.7362 19.1634 60.2757 20.227 61.8107 21.3086C67.4807 25.2983 67.5165 25.2983 73.1283 21.3221C74.6588 20.2405 76.1938 19.1634 77.9614 18.3017C76.3459 20.613 74.7214 22.9197 73.1104 25.2355C71.3472 27.7666 71.3427 29.4136 73.097 31.9403C74.717 34.2695 76.3504 36.5942 77.76 39.1523C75.4911 37.5546 73.2267 35.9524 70.9578 34.3548C68.2235 32.4295 66.7065 32.425 63.9856 34.3368C61.748 35.9076 59.5104 37.4873 57.2773 39.067L57.0267 38.8291Z" fill="url(#paint14_linear_247_1389)"/>
<path d="M0 51.3589C4.25138 45.3138 8.48039 39.2552 12.7586 33.228C16.3522 28.1657 16.4059 23.5926 12.8392 18.4989C8.91 12.8891 4.98083 7.28377 1.05166 1.67845C0.716022 1.19377 0.402762 0.695616 0.241657 0C0.724972 0.305173 1.22619 0.58342 1.6916 0.911032C7.4332 4.95907 13.1614 9.02057 18.9075 13.0596C23.4497 16.255 28.1531 16.2595 32.6819 13.0776C38.3788 9.07442 44.0577 5.04882 49.7456 1.03669C50.2782 0.659713 50.8286 0.305173 51.5804 0.116684C51.0927 0.839227 50.6138 1.56626 50.1126 2.27982C46.2864 7.73704 42.4512 13.1853 38.6294 18.6425C35.2328 23.4894 35.2193 28.067 38.5981 32.9138C42.5138 38.5281 46.4564 44.129 50.3856 49.7343C50.7257 50.219 51.0345 50.7216 51.124 51.507C50.4124 51.0133 49.7009 50.5286 48.9938 50.0305C43.6013 46.2338 38.2177 42.4281 32.8207 38.6358C28.0054 35.252 23.4363 35.261 18.5942 38.6717C12.4677 42.9891 6.35022 47.3198 0.228232 51.6461C0.15663 51.5519 0.0805525 51.4531 0.00895028 51.3589H0Z" fill="url(#paint15_linear_247_1389)"/>
<path d="M56.1898 88.4642C52.659 85.9735 49.1325 83.4738 45.5927 80.992C42.3124 78.6897 39.8064 78.6942 36.5037 81.0144C33.5546 83.0878 30.6234 85.1791 27.6653 87.2436C27.1999 87.5712 26.8061 88.0738 25.8439 88.1097C27.907 85.1567 29.8447 82.3787 31.7914 79.6052C36.007 73.605 36.0025 72.4426 31.7466 66.4289C29.7507 63.6106 27.7727 60.7787 26.0274 57.6956C29.1913 59.926 32.3687 62.1386 35.5147 64.3959C40.0614 67.6631 41.9947 67.6945 46.5414 64.4992C49.7367 62.2508 52.9319 60.0023 56.2301 57.6821C56.3509 58.3284 55.9348 58.638 55.7021 58.9746C53.4018 62.2911 51.0613 65.5807 48.7656 68.8973C46.7965 71.747 46.7831 74.3993 48.7477 77.2446C51.2806 80.9157 53.8583 84.5553 56.4181 88.2129L56.1898 88.4687V88.4642Z" fill="url(#paint16_linear_247_1389)"/>
<path d="M56.2704 38.3218C57.9128 35.9792 59.5641 33.6455 61.193 31.2939C62.8309 28.9333 62.8309 27.2503 61.193 24.8897C59.5596 22.5336 57.9038 20.1909 56.4404 17.5835C57.9799 18.6561 59.5193 19.7197 61.0543 20.8013C66.7243 24.791 66.7601 24.791 72.3719 20.8147C73.9024 19.7332 75.4374 18.6561 77.2051 17.7944C75.5896 20.1057 73.9651 22.4124 72.354 24.7281C70.5908 27.2593 70.5864 28.9063 72.3406 31.433C73.9606 33.7622 75.594 36.0869 77.0037 38.6449C74.7348 37.0473 72.4704 35.4451 70.2015 33.8474C67.4672 31.9222 65.9501 31.9177 63.2292 33.8295C60.9917 35.4002 58.7541 36.98 56.521 38.5597L56.2704 38.3218Z" fill="url(#paint17_linear_247_1389)"/>
<path d="M0 51.3589C4.25138 45.3138 8.48039 39.2552 12.7586 33.228C16.3522 28.1657 16.4059 23.5926 12.8392 18.4989C8.91 12.8891 4.98083 7.28377 1.05166 1.67845C0.716022 1.19377 0.402762 0.695616 0.241657 0C0.724972 0.305173 1.22619 0.58342 1.6916 0.911032C7.4332 4.95907 13.1614 9.02057 18.9075 13.0596C23.4497 16.255 28.1531 16.2595 32.6819 13.0776C38.3788 9.07442 44.0577 5.04882 49.7456 1.03669C50.2782 0.659713 50.8286 0.305173 51.5804 0.116684C51.0927 0.839227 50.6138 1.56626 50.1126 2.27982C46.2864 7.73704 42.4512 13.1853 38.6294 18.6425C35.2328 23.4894 35.2193 28.067 38.5981 32.9138C42.5138 38.5281 46.4564 44.129 50.3856 49.7343C50.7257 50.219 51.0345 50.7216 51.124 51.507C50.4124 51.0133 49.7009 50.5286 48.9938 50.0305C43.6013 46.2338 38.2177 42.4281 32.8207 38.6358C28.0054 35.252 23.4363 35.261 18.5942 38.6717C12.4677 42.9891 6.35022 47.3198 0.228232 51.6461C0.15663 51.5519 0.0805525 51.4531 0.00895028 51.3589H0Z" fill="url(#paint18_linear_247_1389)"/>
<path d="M56.1898 88.4642C52.659 85.9735 49.1325 83.4738 45.5927 80.992C42.3124 78.6897 39.8064 78.6942 36.5037 81.0144C33.5546 83.0878 30.6234 85.1791 27.6653 87.2436C27.1999 87.5712 26.8061 88.0738 25.8439 88.1097C27.907 85.1567 29.8447 82.3787 31.7914 79.6052C36.007 73.605 36.0025 72.4426 31.7466 66.4289C29.7507 63.6106 27.7727 60.7787 26.0274 57.6956C29.1913 59.926 32.3687 62.1386 35.5147 64.3959C40.0614 67.6631 41.9947 67.6945 46.5414 64.4992C49.7367 62.2508 52.9319 60.0023 56.2301 57.6821C56.3509 58.3284 55.9348 58.638 55.7021 58.9746C53.4018 62.2911 51.0613 65.5807 48.7656 68.8973C46.7965 71.747 46.7831 74.3993 48.7477 77.2446C51.2806 80.9157 53.8583 84.5553 56.4181 88.2129L56.1898 88.4687V88.4642Z" fill="url(#paint19_linear_247_1389)"/>
<path d="M56.2704 38.3218C57.9128 35.9792 59.5641 33.6455 61.193 31.2939C62.8309 28.9333 62.8309 27.2503 61.193 24.8897C59.5596 22.5336 57.9038 20.1909 56.4404 17.5835C57.9799 18.6561 59.5193 19.7197 61.0543 20.8013C66.7243 24.791 66.7601 24.791 72.3719 20.8147C73.9024 19.7332 75.4374 18.6561 77.2051 17.7944C75.5896 20.1057 73.9651 22.4124 72.354 24.7281C70.5908 27.2593 70.5864 28.9063 72.3406 31.433C73.9606 33.7622 75.594 36.0869 77.0037 38.6449C74.7348 37.0473 72.4704 35.4451 70.2015 33.8474C67.4672 31.9222 65.9501 31.9177 63.2292 33.8295C60.9917 35.4002 58.7541 36.98 56.521 38.5597L56.2704 38.3218Z" fill="url(#paint20_linear_247_1389)"/>
<defs>
<linearGradient id="paint0_linear_247_1389" x1="3.79492" y1="28.3588" x2="55.3709" y2="28.3588" gradientUnits="userSpaceOnUse">
<stop stop-color="#7C0000"/>
<stop offset="0.2" stop-color="#F5F5F0"/>
<stop offset="0.75" stop-color="#E50C00"/>
</linearGradient>
<linearGradient id="paint1_linear_247_1389" x1="29.6433" y1="75.6066" x2="60.213" y2="75.6066" gradientUnits="userSpaceOnUse">
<stop stop-color="#7C0000"/>
<stop offset="0.2" stop-color="#F5F5F0"/>
<stop offset="0.75" stop-color="#E50C00"/>
</linearGradient>
<linearGradient id="paint2_linear_247_1389" x1="60.0608" y1="30.6566" x2="81" y2="30.6566" gradientUnits="userSpaceOnUse">
<stop stop-color="#7C0000"/>
<stop offset="0.2" stop-color="#F5F5F0"/>
<stop offset="0.75" stop-color="#E50C00"/>
</linearGradient>
<linearGradient id="paint3_linear_247_1389" x1="3.03412" y1="27.8515" x2="54.6146" y2="27.8515" gradientUnits="userSpaceOnUse">
<stop stop-color="#7C0000"/>
<stop offset="0.2" stop-color="#F5F5F0"/>
<stop offset="0.75" stop-color="#E50C00"/>
</linearGradient>
<linearGradient id="paint4_linear_247_1389" x1="28.8825" y1="75.0993" x2="59.4566" y2="75.0993" gradientUnits="userSpaceOnUse">
<stop stop-color="#7C0000"/>
<stop offset="0.2" stop-color="#F5F5F0"/>
<stop offset="0.75" stop-color="#E50C00"/>
</linearGradient>
<linearGradient id="paint5_linear_247_1389" x1="59.3045" y1="30.1493" x2="80.2392" y2="30.1493" gradientUnits="userSpaceOnUse">
<stop stop-color="#7C0000"/>
<stop offset="0.2" stop-color="#F5F5F0"/>
<stop offset="0.75" stop-color="#E50C00"/>
</linearGradient>
<linearGradient id="paint6_linear_247_1389" x1="2.27783" y1="27.3445" x2="53.8538" y2="27.3445" gradientUnits="userSpaceOnUse">
<stop stop-color="#7C0000"/>
<stop offset="0.2" stop-color="#F5F5F0"/>
<stop offset="0.75" stop-color="#E50C00"/>
</linearGradient>
<linearGradient id="paint7_linear_247_1389" x1="28.1262" y1="74.5924" x2="58.6959" y2="74.5924" gradientUnits="userSpaceOnUse">
<stop stop-color="#7C0000"/>
<stop offset="0.2" stop-color="#F5F5F0"/>
<stop offset="0.75" stop-color="#E50C00"/>
</linearGradient>
<linearGradient id="paint8_linear_247_1389" x1="58.5438" y1="29.6424" x2="79.4829" y2="29.6424" gradientUnits="userSpaceOnUse">
<stop stop-color="#7C0000"/>
<stop offset="0.2" stop-color="#F5F5F0"/>
<stop offset="0.75" stop-color="#E50C00"/>
</linearGradient>
<linearGradient id="paint9_linear_247_1389" x1="1.51709" y1="26.8372" x2="53.0931" y2="26.8372" gradientUnits="userSpaceOnUse">
<stop stop-color="#7C0000"/>
<stop offset="0.2" stop-color="#F5F5F0"/>
<stop offset="0.75" stop-color="#E50C00"/>
</linearGradient>
<linearGradient id="paint10_linear_247_1389" x1="27.3655" y1="74.0851" x2="57.9352" y2="74.0851" gradientUnits="userSpaceOnUse">
<stop stop-color="#7C0000"/>
<stop offset="0.2" stop-color="#F5F5F0"/>
<stop offset="0.75" stop-color="#E50C00"/>
</linearGradient>
<linearGradient id="paint11_linear_247_1389" x1="57.7875" y1="29.1351" x2="78.7222" y2="29.1351" gradientUnits="userSpaceOnUse">
<stop stop-color="#7C0000"/>
<stop offset="0.2" stop-color="#F5F5F0"/>
<stop offset="0.75" stop-color="#E50C00"/>
</linearGradient>
<linearGradient id="paint12_linear_247_1389" x1="0.756328" y1="26.3304" x2="52.3368" y2="26.3304" gradientUnits="userSpaceOnUse">
<stop stop-color="#7C0000"/>
<stop offset="0.2" stop-color="#F5F5F0"/>
<stop offset="0.75" stop-color="#E50C00"/>
</linearGradient>
<linearGradient id="paint13_linear_247_1389" x1="26.6092" y1="73.5783" x2="57.1789" y2="73.5783" gradientUnits="userSpaceOnUse">
<stop stop-color="#7C0000"/>
<stop offset="0.2" stop-color="#F5F5F0"/>
<stop offset="0.75" stop-color="#E50C00"/>
</linearGradient>
<linearGradient id="paint14_linear_247_1389" x1="57.0267" y1="28.6283" x2="77.9659" y2="28.6283" gradientUnits="userSpaceOnUse">
<stop stop-color="#7C0000"/>
<stop offset="0.2" stop-color="#F5F5F0"/>
<stop offset="0.75" stop-color="#E50C00"/>
</linearGradient>
<linearGradient id="paint15_linear_247_1389" x1="0" y1="25.8231" x2="51.576" y2="25.8231" gradientUnits="userSpaceOnUse">
<stop stop-color="#7C0000"/>
<stop offset="0.2" stop-color="#F5F5F0"/>
<stop offset="0.75" stop-color="#E50C00"/>
</linearGradient>
<linearGradient id="paint16_linear_247_1389" x1="25.8484" y1="73.0709" x2="56.4181" y2="73.0709" gradientUnits="userSpaceOnUse">
<stop stop-color="#7C0000"/>
<stop offset="0.2" stop-color="#F5F5F0"/>
<stop offset="0.75" stop-color="#E50C00"/>
</linearGradient>
<linearGradient id="paint17_linear_247_1389" x1="56.2659" y1="28.1165" x2="77.2051" y2="28.1165" gradientUnits="userSpaceOnUse">
<stop stop-color="#7C0000"/>
<stop offset="0.2" stop-color="#F5F5F0"/>
<stop offset="0.75" stop-color="#E50C00"/>
</linearGradient>
<linearGradient id="paint18_linear_247_1389" x1="0" y1="25.8231" x2="51.576" y2="25.8231" gradientUnits="userSpaceOnUse">
<stop stop-color="#7C0000"/>
<stop offset="0.75" stop-color="#E50C00"/>
</linearGradient>
<linearGradient id="paint19_linear_247_1389" x1="25.8484" y1="73.0709" x2="56.4181" y2="73.0709" gradientUnits="userSpaceOnUse">
<stop stop-color="#7C0000"/>
<stop offset="0.75" stop-color="#E50C00"/>
</linearGradient>
<linearGradient id="paint20_linear_247_1389" x1="56.2659" y1="28.1165" x2="77.2051" y2="28.1165" gradientUnits="userSpaceOnUse">
<stop stop-color="#7C0000"/>
<stop offset="0.75" stop-color="#E50C00"/>
</linearGradient>
</defs>
</svg>
