<svg width="123" height="104" viewBox="0 0 123 104" fill="none" xmlns="http://www.w3.org/2000/svg">
<path d="M2.48851 69.8163C8.05054 79.9375 13.9321 90.4227 23.4058 97.0381C39.0873 107.985 63.2331 100.177 62.2239 78.8894C61.8626 71.2761 58.4291 64.1343 54.319 57.7141C48.2572 48.2434 40.5742 39.8191 31.7056 32.9103C29.3131 31.0477 26.379 29.2006 23.4499 29.9923C20.6432 30.7494 18.955 33.8014 18.8299 36.7059C18.2987 49.2248 30.5311 59.6913 38.6332 67.4486C47.6425 76.0771 70.3161 99.3665 84.2548 89.0846C93.3628 82.3688 87.8258 64.169 85.2452 55.444C82.8487 47.3565 58.5161 -4.60532 48.3065 2.73957C47.4976 3.32162 46.9779 4.22902 46.5951 5.14664C44.8954 9.21118 45.3589 13.9442 47.0345 18.0223C54.907 37.1448 98.7172 78.5266 117.407 50.886C125.936 38.2774 116.117 23.3161 108.825 12.8099" stroke="url(#paint0_linear_247_1445)" stroke-width="4" stroke-miterlimit="10"/>
<defs>
<linearGradient id="paint0_linear_247_1445" x1="101.642" y1="80.1657" x2="21.5411" y2="23.5986" gradientUnits="userSpaceOnUse">
<stop stop-color="#7C0000"/>
<stop offset="0.2" stop-color="#F5F5F0"/>
<stop offset="0.75" stop-color="#E50C00"/>
</linearGradient>
</defs>
</svg>
