<svg width="23" height="23" viewBox="0 0 23 23" fill="none" xmlns="http://www.w3.org/2000/svg">
<path fill-rule="evenodd" clip-rule="evenodd" d="M19.6535 3.42063C17.5673 1.3345 14.7911 0.182617 11.8345 0.182617C5.74062 0.182617 0.788053 5.14049 0.782744 11.229C0.782744 13.1771 1.29233 15.0775 2.25843 16.7496L0.692505 22.4771L6.55278 20.9431C8.16648 21.8242 9.98189 22.286 11.8345 22.286H11.8398C17.9283 22.286 22.8862 17.3282 22.8915 11.2396C22.8915 8.28296 21.7396 5.50676 19.6535 3.42063ZM11.8398 20.4176C10.1889 20.4176 8.5699 19.9717 7.16322 19.1383L6.82881 18.9419L3.35192 19.8549L4.28086 16.4682L4.06322 16.1232C3.1449 14.6634 2.65655 12.9701 2.65655 11.2343C2.65655 6.17029 6.78103 2.05111 11.8451 2.05111C14.2975 2.05111 16.6065 3.00659 18.337 4.74238C20.0728 6.47817 21.0283 8.78724 21.023 11.2396C21.0177 16.2984 16.8985 20.4176 11.8398 20.4176ZM16.8773 13.5434C16.6012 13.4054 15.2423 12.7366 14.9928 12.6463C14.7381 12.5561 14.5576 12.5083 14.3718 12.7843C14.186 13.0604 13.6605 13.6814 13.4959 13.8672C13.3367 14.053 13.1721 14.0742 12.8961 13.9362C12.6201 13.7982 11.7283 13.5062 10.6773 12.5667C9.85449 11.8342 9.30244 10.9318 9.14319 10.6557C8.98394 10.3797 9.12726 10.2311 9.26528 10.0931C9.38737 9.97097 9.54131 9.76926 9.67932 9.61001C9.81733 9.45077 9.86511 9.33399 9.95535 9.1482C10.0456 8.96241 10.0031 8.80317 9.93411 8.66515C9.86511 8.52714 9.31305 7.16823 9.0848 6.61618C8.86185 6.08005 8.6336 6.14906 8.46374 6.14375C8.30449 6.13313 8.1187 6.13313 7.93292 6.13313C7.74713 6.13313 7.44987 6.20214 7.19507 6.47817C6.94028 6.75419 6.22898 7.42303 6.22898 8.78193C6.22898 10.1408 7.21631 11.452 7.35432 11.6378C7.49233 11.8235 9.30244 14.6104 12.0733 15.8047C12.7315 16.0914 13.2464 16.2612 13.6499 16.3886C14.3134 16.6009 14.9132 16.5691 15.391 16.5001C15.9218 16.4205 17.0259 15.8312 17.2541 15.189C17.4824 14.5467 17.4824 13.9893 17.4134 13.8778C17.3338 13.7504 17.1533 13.6814 16.8773 13.5434Z" fill="white"/>
</svg>
